<?xml version="1.0" encoding="UTF-8" standalone="no"?>
<!-- Created with Inkscape (http://www.inkscape.org/) -->

<svg
   xmlns:dc="http://purl.org/dc/elements/1.1/"
   xmlns:cc="http://creativecommons.org/ns#"
   xmlns:rdf="http://www.w3.org/1999/02/22-rdf-syntax-ns#"
   xmlns:svg="http://www.w3.org/2000/svg"
   xmlns="http://www.w3.org/2000/svg"
   xmlns:sodipodi="http://sodipodi.sourceforge.net/DTD/sodipodi-0.dtd"
   xmlns:inkscape="http://www.inkscape.org/namespaces/inkscape"
   width="1722.5681"
   height="370.04926"
   id="svg2"
   version="1.1"
   inkscape:version="0.48.1 "
   sodipodi:docname="Princesse Mononoké.svg"
   style="display:inline">
  <defs
     id="defs4" />
  <sodipodi:namedview
     id="base"
     pagecolor="#ffffff"
     bordercolor="#666666"
     borderopacity="1.0"
     inkscape:pageopacity="0.0"
     inkscape:pageshadow="2"
     inkscape:zoom="0.24748737"
     inkscape:cx="956.23263"
     inkscape:cy="577.62462"
     inkscape:document-units="px"
     inkscape:current-layer="layer2"
     showgrid="false"
     inkscape:window-width="1280"
     inkscape:window-height="940"
     inkscape:window-x="-8"
     inkscape:window-y="-8"
     inkscape:window-maximized="1"
     fit-margin-top="1"
     fit-margin-left="1"
     fit-margin-right="1"
     fit-margin-bottom="1" />
  <metadata
     id="metadata7">
    <rdf:RDF>
      <cc:Work
         rdf:about="">
        <dc:format>image/svg+xml</dc:format>
        <dc:type
           rdf:resource="http://purl.org/dc/dcmitype/StillImage" />
        <dc:title />
      </cc:Work>
    </rdf:RDF>
  </metadata>
  <g
     inkscape:groupmode="layer"
     id="layer2"
     inkscape:label="logo"
     transform="translate(-646.4706,553.11846)">
    <g
       id="g3775">
      <path
         d="m 1916.2594,-341.64832 c 0,6.69471 -5.4271,12.12184 -12.1218,12.12184 -6.6947,0 -12.1219,-5.42713 -12.1219,-12.12184 0,-6.6947 5.4272,-12.12183 12.1219,-12.12183 6.6947,0 12.1218,5.42713 12.1218,12.12183 z"
         sodipodi:ry="12.121831"
         sodipodi:rx="12.121831"
         sodipodi:cy="-341.64832"
         sodipodi:cx="1904.1376"
         id="path2997"
         style="fill:#ff0000;fill-opacity:1;fill-rule:nonzero;stroke:#ff0000;stroke-width:3;stroke-linejoin:round;stroke-miterlimit:4;stroke-opacity:1;stroke-dasharray:none"
         sodipodi:type="arc" />
      <path
         d="m 1916.2594,-341.64832 c 0,6.69471 -5.4271,12.12184 -12.1218,12.12184 -6.6947,0 -12.1219,-5.42713 -12.1219,-12.12184 0,-6.6947 5.4272,-12.12183 12.1219,-12.12183 6.6947,0 12.1218,5.42713 12.1218,12.12183 z"
         sodipodi:ry="12.121831"
         sodipodi:rx="12.121831"
         sodipodi:cy="-341.64832"
         sodipodi:cx="1904.1376"
         id="path2997-1"
         style="fill:#ff0000;fill-opacity:1;fill-rule:nonzero;stroke:#ff0000;stroke-width:3;stroke-linejoin:round;stroke-miterlimit:4;stroke-opacity:1;stroke-dasharray:none"
         sodipodi:type="arc"
         transform="translate(-404.06104,0)" />
      <path
         d="m 1916.2594,-341.64832 c 0,6.69471 -5.4271,12.12184 -12.1218,12.12184 -6.6947,0 -12.1219,-5.42713 -12.1219,-12.12184 0,-6.6947 5.4272,-12.12183 12.1219,-12.12183 6.6947,0 12.1218,5.42713 12.1218,12.12183 z"
         sodipodi:ry="12.121831"
         sodipodi:rx="12.121831"
         sodipodi:cy="-341.64832"
         sodipodi:cx="1904.1376"
         id="path2997-7"
         style="fill:#ff0000;fill-opacity:1;fill-rule:nonzero;stroke:#ff0000;stroke-width:3;stroke-linejoin:round;stroke-miterlimit:4;stroke-opacity:1;stroke-dasharray:none"
         sodipodi:type="arc"
         transform="translate(-809.13221,0)" />
      <path
         sodipodi:nodetypes="scccscccccccsssccscs"
         inkscape:connector-curvature="0"
         id="path3028"
         d="m 2300.2188,-439.8125 c -16.2314,0.24549 -31.8494,2.61342 -44.5,6.46875 -36.9289,8.94963 -70.5748,51.8813 -70.7188,70 -0.889,14.46577 -1.0315,26.96726 0,40.71875 0.2685,17.39017 13.9932,37.80309 36.625,54.5 21.0705,15.54507 50.1164,25.89123 76.2188,26.1875 17.2853,-0.0626 49.5659,-7.10064 64.3124,-20.6875 3.3805,-3.28164 -0.5517,-8.58149 -3.5937,-7.15625 -16.6814,11.39899 -38.7609,11.96627 -61.4063,11.4375 -34.8312,-2.55051 -60.1743,-20.81219 -52.875,-27.875 l 115,-106.40625 c 11.2448,-10.99115 10.293,-31.15548 1.4376,-36.4375 -16.4974,-8.9012 -39.6312,-11.06564 -60.5,-10.75 z m -10.875,13.46875 c 4.983,-0.0557 9.8573,0.18459 14.5624,0.53125 18.1518,1.33736 31.703,5.56843 44.6876,19 l -119.4376,110.125 c -12.5378,-21.16848 -18.8097,-41.88509 -16.625,-61.96875 2.0777,-19.09924 11.311,-42.68304 31.0313,-55.46875 14.9492,-9.36043 30.832,-12.05167 45.7813,-12.21875 z"
         style="fill:#000000;fill-opacity:1;stroke:#000000;stroke-width:1px;stroke-linecap:butt;stroke-linejoin:round;stroke-opacity:1" />
      <path
         sodipodi:nodetypes="ccccccccccccccccccccccccccccccccccccc"
         inkscape:connector-curvature="0"
         id="path2988"
         d="m 655,-492.28067 107.85714,0 c 10.67871,0.25697 16.41544,7.60567 20.71429,16.78571 l 35,72.14286 c 6.66667,12.89644 13.33333,12.65324 20,-0.71429 L 875,-482.63782 c 3.08906,-5.94243 7.73276,-9.62343 16.42857,-9.64285 l 101.42857,0 c 14.32966,0.0574 10.28006,13.07723 1.42858,13.92857 l -13.57143,0 c -8.91925,0.72493 -16.90226,7.36681 -16.78572,13.57142 l 0,229.28572 c 0.3263,11.41218 -0.3377,23.39025 9.64286,29.28571 l 8.57143,4.28572 c 5.56415,2.37196 8.84739,9.2311 0.71428,9.28571 l -80,0 c -7.08548,-0.0927 -6.63984,-6.88579 -1.42857,-9.28571 l 11.42857,-5 c 9.76947,-4.96238 11.18858,-13.90114 11.07144,-23.57143 l 0,-227.85714 c -0.40455,-9.56166 -3.39083,-19.54501 -18.92858,-19.28572 -12.32731,0.10123 -16.90132,9.27468 -20,16.42857 l -47.14286,134.28572 c -6.19611,13.81533 -19.24737,13.53222 -24.28571,0 l -47.14286,-142.85715 c -2.07794,-7.25225 -9.84374,-8.12501 -18.57143,-7.85714 -11.11817,0.51045 -16.57225,7.15496 -16.42856,15 l 0,242.85714 c 6.41003,10.04226 8.03325,11.922 19.28571,17.14286 5.17483,3.33333 8.71308,6.66667 -0.71429,10 l -78.57143,0 c -8.71977,-0.0298 -6.76173,-7.64881 -1.42857,-10 6.04062,-2.75904 18.72218,-9.20913 18.57143,-18.57143 l 0,-237.85714 c -0.33293,-12.40415 -6.87044,-16.4962 -15,-18.57143 l -20.71429,-3.57143 c -8.60628,-2.67959 -4.53223,-11.10882 2.14286,-11.07142 z"
         style="fill:#000000;fill-opacity:1;stroke:#000000;stroke-width:1px;stroke-linecap:butt;stroke-linejoin:round;stroke-opacity:1" />
      <path
         inkscape:connector-curvature="0"
         id="path2990"
         d="m 1098.8125,-439.31143 c -86.2903,0.42051 -104.45747,58.64066 -105.03125,91.40625 0.68965,60.92546 36.59915,104.62859 105.03125,105.4375 44.7796,-0.47969 100.7828,-39.86447 100.9687,-105.4375 0.014,-60.45298 -46.9176,-90.87359 -100.9687,-91.40625 z m 0,13.5 c 43.8859,0.61766 68.8163,36.22493 69,77.90625 -0.3445,65.59167 -28.0909,87.60794 -69,87.90625 -50.1463,-0.50052 -75.1242,-36.17644 -75.4687,-87.90625 0.8177,-46.46919 14.6629,-77.6052 75.4687,-77.90625 z"
         style="fill:#000000;fill-opacity:1;stroke:#000000;stroke-width:1px;stroke-linecap:butt;stroke-linejoin:round;stroke-opacity:1" />
      <path
         id="path2990-1"
         d="m 1907.0313,-439.31143 c -86.2903,0.42051 -104.4575,58.64066 -105.0312,91.40625 0.6896,60.92546 36.5991,104.62859 105.0312,105.4375 44.7796,-0.47969 100.7828,-39.86447 100.9687,-105.4375 0.014,-60.45298 -46.9176,-90.87359 -100.9687,-91.40625 z m 0,13.5 c 43.8859,0.61766 68.8163,36.22493 69,77.90625 -0.3445,65.59167 -28.0909,87.60794 -69,87.90625 -50.1463,-0.50052 -75.1242,-36.17644 -75.4687,-87.90625 0.8177,-46.46919 14.6629,-77.6052 75.4687,-77.90625 z"
         style="fill:#000000;fill-opacity:1;stroke:#000000;stroke-width:1px;stroke-linecap:butt;stroke-linejoin:round;stroke-opacity:1"
         inkscape:connector-curvature="0" />
      <path
         id="path2990-7"
         d="m 1503.4599,-439.31143 c -86.2903,0.42051 -104.4575,58.64066 -105.0313,91.40625 0.6897,60.92546 36.5992,104.62859 105.0313,105.4375 44.7796,-0.47969 100.7828,-39.86447 100.9687,-105.4375 0.014,-60.45298 -46.9176,-90.87359 -100.9687,-91.40625 z m 0,13.5 c 43.8859,0.61766 68.8163,36.22493 69,77.90625 -0.3445,65.59167 -28.0909,87.60794 -69,87.90625 -50.1463,-0.50052 -75.1242,-36.17644 -75.4687,-87.90625 0.8177,-46.46919 14.6629,-77.6052 75.4687,-77.90625 z"
         style="fill:#000000;fill-opacity:1;stroke:#000000;stroke-width:1px;stroke-linecap:butt;stroke-linejoin:round;stroke-opacity:1"
         inkscape:connector-curvature="0" />
      <path
         sodipodi:nodetypes="ccccccccccccccccccccccc"
         inkscape:connector-curvature="0"
         id="path3022"
         d="m 1602.1019,-434.08012 43.9417,0 128.0368,144.19928 0,-119.70307 c 0.1163,-9.57251 -2.0631,-13.63533 -5.3033,-15.15229 l -10.1015,-3.03046 c -3.6467,-0.71591 -4.3899,-6.31525 0,-6.31346 l 43.9416,0 c 3.8078,0.075 4.6416,6.49221 0,7.82869 l -11.6167,1.51523 c -4.844,2.24251 -6.9871,8.2662 -7.0711,17.17259 l 0,152.53304 c 0.035,7.38179 -5.2597,9.10124 -9.0914,5.55584 l -130.3097,-146.9772 c -4.9175,-5.10504 -11.1581,-2.59079 -11.1116,4.54569 l 0,128.28937 c 0.011,3.54042 5.9083,9.62339 12.1218,15.65736 l -31.8198,0 c 4.3048,-4.10779 9.6007,-9.89538 9.849,-13.63705 l 0,-150.00766 c -0.2575,-6.05594 -4.0977,-8.52921 -8.3338,-10.6066 l -12.1218,-4.04061 c -5.5383,-2.64746 -4.7266,-7.57836 -1.0102,-7.82869 z"
         style="fill:#000000;fill-opacity:1;stroke:#000000;stroke-width:1px;stroke-linecap:butt;stroke-linejoin:round;stroke-opacity:1" />
      <path
         sodipodi:nodetypes="ccccccccccccccccccccccc"
         inkscape:connector-curvature="0"
         id="path3022-1"
         d="m 1197.8515,-434.08012 43.9417,0 128.0368,144.19928 0,-119.70307 c 0.1163,-9.57251 -2.0631,-13.63533 -5.3033,-15.15229 l -10.1015,-3.03046 c -3.6467,-0.71591 -4.3899,-6.31525 0,-6.31346 l 43.9416,0 c 3.8078,0.075 4.6416,6.49221 0,7.82869 l -11.6167,1.51523 c -4.844,2.24251 -6.9871,8.2662 -7.0711,17.17259 l 0,152.53304 c 0.035,7.38179 -5.2597,9.10124 -9.0914,5.55584 l -130.3097,-146.9772 c -4.9175,-5.10504 -11.1581,-2.59079 -11.1116,4.54569 l 0,128.28937 c 0.011,3.54042 5.9083,9.62339 12.1218,15.65736 l -31.8198,0 c 4.3048,-4.10779 9.6007,-9.89538 9.849,-13.63705 l 0,-150.00766 c -0.2575,-6.05594 -4.0977,-8.52921 -8.3338,-10.6066 l -12.1218,-4.04061 c -5.5383,-2.64746 -4.7266,-7.57836 -1.0102,-7.82869 z"
         style="fill:#000000;fill-opacity:1;stroke:#000000;stroke-width:1px;stroke-linecap:butt;stroke-linejoin:round;stroke-opacity:1" />
      <path
         sodipodi:nodetypes="cccccc"
         inkscape:connector-curvature="0"
         id="path3810"
         d="m 2328.5714,-465.8521 c 4.8674,-5.46781 4.3739,-11.72319 -1.4285,-18.92858 -7.7206,-7.26841 -13.272,-6.61294 -19.2858,-2.14285 -12.9625,12.68149 -20.0317,26.62584 -26.4285,40.71428 -2.9203,6.62274 0.5276,8.27509 5.7143,5.71429 15.1599,-6.29176 28.6398,-15.27145 41.4285,-25.35714 z"
         style="fill:#000000;fill-opacity:1;stroke:#000000;stroke-width:1px;stroke-linecap:butt;stroke-linejoin:round;stroke-opacity:1" />
      <path
         sodipodi:nodetypes="cccccccccccccccccccccccccccc"
         inkscape:connector-curvature="0"
         id="path3813"
         d="m 2006.668,-432.30952 65.6599,0 c 7.0425,-0.005 4.8295,8.7548 0.5051,8.83883 l -11.1117,-0.50507 c -7.3522,-0.51393 -8.7454,5.29307 -8.8388,9.59645 l 0,53.53808 c 15.0615,5.44404 36.7575,3.69176 54.8008,2.02031 12.1683,-10.41636 25.5928,-25.17846 33.5876,-40.09043 l 39.1434,0 c 3.0333,0.17023 3.4233,6.94161 0.505,7.26047 l -17.6776,1.01015 -49.4975,41.92133 -36.3655,0.50508 c -3.3399,-0.099 -6.2554,3.63566 -3.5355,6.56599 l 116.6726,92.17642 -34.3452,0 -93.6098,-84.12321 c -5.5291,-3.90727 -9.8085,2.26399 -9.6783,8.61431 l 0,79.80205 c -0.4552,15.62751 -14.5655,34.47357 -25.5063,45.96194 -8.322,7.72965 -17.2812,14.43986 -30.3046,14.64721 -8.1283,0.10931 -6.8968,-21.69147 -1.5152,-19.69797 7.5761,2.80077 16.5413,4.4853 22.7284,1.01015 9.1021,-6.11431 11.4948,-20.95081 11.1116,-39.39595 l 0,-170.2107 c 0.023,-6.07115 -5.22,-8.99421 -10.6065,-10.60661 l -12.1219,-3.03045 c -3.3966,-1.31623 -3.7696,-5.56358 0,-5.80838 z"
         style="fill:#000000;fill-opacity:1;stroke:#000000;stroke-width:1px;stroke-linecap:butt;stroke-linejoin:round;stroke-opacity:1" />
      <path
         sodipodi:nodetypes="ccccccccc"
         inkscape:connector-curvature="0"
         id="path3815"
         d="m 1326.8354,-548.7296 33.8401,0 -11.3642,6.31345 0,67.68023 7.3236,8.83882 -27.2742,0 6.3135,-8.83882 0,-67.68023 z"
         style="fill:#000000;fill-opacity:1;stroke:#000000;stroke-width:1px;stroke-linecap:butt;stroke-linejoin:miter;stroke-opacity:1" />
      <path
         sodipodi:nodetypes="ccccccccccccccc"
         inkscape:connector-curvature="0"
         id="path3817"
         d="m 1365.2212,-550.74619 21.7182,0 63.1346,63.89215 0,-58.08377 -9.0914,-5.80838 25.2538,0 -10.6959,5.80838 0,81.0573 -74.7819,-71.57815 0,59.96884 6.1808,7.07107 -16.1624,0 5.0508,-7.07107 0,-65.40738 z"
         style="fill:#000000;fill-opacity:1;stroke:#000000;stroke-width:1px;stroke-linecap:butt;stroke-linejoin:miter;stroke-opacity:1" />
      <path
         sodipodi:nodetypes="ccccccccccccccccccc"
         inkscape:connector-curvature="0"
         id="path3819"
         d="m 1561.6958,-548.22453 66.6701,0 0,16.41498 -8.5863,-11.11168 -32.3249,0 0,32.07235 45.4569,0 4.5457,-7.82869 0,25.75889 -5.5559,-11.11168 -44.4467,0 0,30.80966 34.3452,0 5.8084,-10.10153 0,16.92005 -66.9226,0 12.1218,-6.81852 0,-68.69037 z"
         style="fill:#000000;fill-opacity:1;stroke:#000000;stroke-width:1px;stroke-linecap:butt;stroke-linejoin:round;stroke-opacity:1" />
      <path
         sodipodi:nodetypes="ccccccccccccccccccc"
         inkscape:connector-curvature="0"
         id="path3819-9"
         d="m 1792.9814,-548.22453 66.6701,0 0,16.41498 -8.5863,-11.11168 -32.3249,0 0,32.07235 45.4569,0 4.5457,-7.82869 0,25.75889 -5.5559,-11.11168 -44.4467,0 0,30.80966 34.3452,0 5.8084,-10.10153 0,16.92005 -66.9226,0 12.1218,-6.81852 0,-68.69036 z"
         style="fill:#000000;fill-opacity:1;stroke:#000000;stroke-width:1px;stroke-linecap:butt;stroke-linejoin:round;stroke-opacity:1" />
      <path
         sodipodi:nodetypes="ccccccccccc"
         inkscape:connector-curvature="0"
         id="path3839"
         d="m 1557.3214,-547.29576 0,18.21429 -8.0357,-12.14286 c -2.0853,-2.55564 -12.8142,-4.60964 -25.3571,-4.28571 -33.439,0.57508 -40.5712,17.7835 -40.7143,36.78571 0.2502,17.07335 11.6405,34.49542 39.2857,37.5 13.1845,0.87763 23.3333,-1.50707 35,-4.28571 -3.5826,6.47909 -16.1399,12.62223 -34.6429,12.5 -37.0524,-1.3397 -53.8,-22.61573 -53.9285,-45.71429 -0.3126,-21.11112 18.7013,-42.6958 55.3571,-42.85714 11.3903,-0.34004 21.6157,1.70972 33.0357,4.28571 z"
         style="fill:#000000;fill-opacity:1;stroke:#000000;stroke-width:1px;stroke-linecap:butt;stroke-linejoin:round;stroke-opacity:1" />
      <path
         sodipodi:nodetypes="ccccccccccccccccc"
         inkscape:connector-curvature="0"
         id="path3841"
         d="m 1707.4103,-545.5086 -3.283,14.64721 -3.5355,-10.10152 c -5.8809,-4.44324 -13.4961,-4.52685 -22.2233,-4.79823 -14.9319,0.64024 -23.7047,6.6384 -23.9912,15.9099 0,15.13214 15.3929,16.32418 32.83,16.16244 15.4009,0.65558 27.8982,8.36221 27.7792,19.44544 0.072,13.66716 -11.732,24.50774 -29.0419,29.54696 -14.0609,3.33845 -29.4933,1.60945 -40.9112,-4.79822 l 2.0203,-17.93021 4.2932,10.6066 c 8.9298,5.04883 18.4373,6.34252 28.0317,7.07107 8.9299,0.2133 22.8661,-8.11295 22.981,-19.44544 -0.5003,-15.40463 -29.0402,-10.82638 -41.1637,-13.63706 -11.5853,-2.60757 -19.035,-12.10048 -19.1929,-21.71828 -0.044,-11.83756 14.0757,-26.81445 36.1129,-27.02158 10.4138,-0.18619 20.5466,0.58287 29.2944,6.06092 z"
         style="fill:#000000;fill-opacity:1;stroke:#000000;stroke-width:1px;stroke-linecap:butt;stroke-linejoin:round;stroke-opacity:1" />
      <path
         sodipodi:nodetypes="ccccccccccccccccc"
         inkscape:connector-curvature="0"
         id="path3841-0"
         d="m 1783.0451,-545.5086 -3.283,14.64721 -3.5355,-10.10152 c -5.8809,-4.44324 -13.4961,-4.52685 -22.2233,-4.79823 -14.9319,0.64024 -23.7047,6.6384 -23.9912,15.9099 0,15.13214 15.3929,16.32418 32.83,16.16244 15.4009,0.65558 27.8982,8.36221 27.7792,19.44544 0.072,13.66716 -11.732,24.50774 -29.0419,29.54696 -14.0609,3.33845 -29.4933,1.60945 -40.9112,-4.79822 l 2.0203,-17.93021 4.2932,10.6066 c 8.9298,5.04883 18.4373,6.34252 28.0317,7.07107 8.9299,0.2133 22.8661,-8.11295 22.981,-19.44544 -0.5003,-15.40463 -29.0402,-10.82638 -41.1637,-13.63706 -11.5853,-2.60757 -19.035,-12.10048 -19.1929,-21.71828 -0.044,-11.83756 14.0757,-26.81445 36.1129,-27.02158 10.4138,-0.18619 20.5466,0.58287 29.2944,6.06092 z"
         style="fill:#000000;fill-opacity:1;stroke:#000000;stroke-width:1px;stroke-linecap:butt;stroke-linejoin:round;stroke-opacity:1" />
      <path
         sodipodi:nodetypes="ccscccccccccccccc"
         inkscape:connector-curvature="0"
         id="path3003"
         d="m 1236.4267,-548.09826 51.5178,0 c 18.646,0.33559 23.5648,10.00048 23.4506,17.54771 -0.1391,9.20385 -9.8105,18.51427 -24.9658,24.8787 l 35.3553,39.14341 -17.1726,0 -30.8096,-34.59773 0,-7.07107 c 9.2601,-4.41893 21.8318,-4.69835 22.2233,-20.20305 0.06,-9.47803 -5.292,-14.12544 -13.132,-14.63189 l -22.9809,0 0,70.44282 10.8591,6.06092 -34.8503,0 10.8591,-6.06092 0,-70.44282 z"
         style="fill:#000000;fill-opacity:1;stroke:#000000;stroke-width:1px;stroke-linecap:butt;stroke-linejoin:round;stroke-opacity:1" />
      <path
         sodipodi:nodetypes="ccccccccccccc"
         inkscape:connector-curvature="0"
         id="path3005"
         d="m 1155.1094,-549.36095 52.0229,0 c 14.1586,0.38433 25.7025,7.79292 25.2368,20.49624 -0.3736,23.36711 -26.5099,23.04001 -41.3126,22.33064 11.8236,-4.34304 26.1244,-5.88008 26.1773,-21.36114 0.01,-12.57984 -8.9769,-14.71094 -16.6675,-14.96289 l -20.9606,0 0,70.26874 12.8794,7.32361 -35.3554,0 10.1016,-7.32361 0,-69.82679 z"
         style="fill:#000000;fill-opacity:1;stroke:#000000;stroke-width:1px;stroke-linecap:butt;stroke-linejoin:round;stroke-opacity:1" />
    </g>
  </g>
</svg>
